Coordinates
version=1
nRows=24
nColumns=24
inDegrees=yes

Units are S.I. units (second, meters, Newtons, ...)
Angles are in degrees.

endheader
time	pelvis_tilt	pelvis_list	pelvis_rotation	pelvis_tx	pelvis_ty	pelvis_tz	hip_flexion_r	hip_adduction_r	hip_rotation_r	knee_angle_r	ankle_angle_r	subtalar_angle_r	mtp_angle_r	hip_flexion_l	hip_adduction_l	hip_rotation_l	knee_angle_l	ankle_angle_l	subtalar_angle_l	mtp_angle_l	lumbar_extension	lumbar_bending	lumbar_rotation
      0.44600000	     -3.80036604	      5.13323396	     -3.44492624	     -0.77362907	      1.06148400	      0.32627807	     27.28461075	     -1.19154839	     -3.47395831	     -7.03900503	      0.16009972	     -5.06327267	     -0.13514783	     -7.36064753	      9.59348553	      2.83428125	     -4.23192611	      6.30991759	    -11.50453464	     -0.33063006	      6.83454192	     -1.89097743	     -0.20757579
      0.45016667	     -3.89407930	      5.14143129	     -3.40457373	     -0.76799195	      1.06082351	      0.32622656	     27.27959148	     -1.17745708	     -3.70462072	     -6.93275244	      0.05194937	     -4.21607756	     -0.14697596	     -7.36462477	      9.61733247	      2.97490334	     -4.70105174	      6.54212151	    -11.44640584	     -0.55260239	      6.91463558	     -1.91746275	     -0.27898241
      0.45433333	     -3.91301182	      5.13938917	     -3.42299072	     -0.76236424	      1.06027162	      0.32643264	     27.17482339	     -1.11511657	     -3.61150699	     -6.86039634	      0.04171151	     -4.15821617	     -0.14710814	     -7.42830534	      9.62052427	      3.01719219	     -5.18484710	      6.55608593	    -11.47416344	     -0.57149322	      6.99215488	     -1.90034962	     -0.27961932
      0.45850000	     -3.93286706	      5.11718222	     -3.44396501	     -0.75664522	      1.05975084	      0.32661988	     27.06388412	     -1.03599865	     -3.48548109	     -6.85084418	     -0.00906949	     -4.07806142	     -0.14640541	     -7.47841334	      9.59882635	      3.04051958	     -5.70924486	      6.60765827	    -11.50221897	     -0.59084992	      7.06247580	     -1.85724360	     -0.28664864
      0.46266667	     -3.94415327	      5.09620489	     -3.47494121	     -0.75088316	      1.05925161	      0.32680343	     26.95070382	     -0.95975522	     -3.34164122	     -6.91506420	     -0.09357185	     -3.99402984	     -0.14488390	     -7.51826864	      9.57972921	      3.04558638	     -6.27423385	      6.67347437	    -11.51506958	     -0.60874008	      7.12752898	     -1.79750498	     -0.29776674
      0.46683333	     -3.94667286	      5.07311056	     -3.50882681	     -0.74511491	      1.05879296	      0.32695375	     26.83524611	     -0.88744601	     -3.18583698	     -7.04711461	     -0.20131411	     -3.91573978	     -0.14266682	     -7.53963941	      9.55786976	      3.02923371	     -6.89317527	      6.73386584	    -11.50877427	     -0.62351457	      7.18496426	     -1.72723395	     -0.31024709
      0.47100000	     -3.92479880	      5.04689971	     -3.72504439	     -0.73920984	      1.05831110	      0.32743191	     26.71375218	     -0.72856138	     -2.84205830	     -7.23072712	     -0.64481403	     -3.79049194	     -0.12494322	     -7.57299965	      9.54564760	      2.69322169	     -7.53379111	      7.09102769	    -11.07059656	     -0.71422970	      7.24716732	     -1.63709775	     -0.35039776
      0.47516667	     -3.96372410	      4.99082648	     -3.69678131	     -0.73333281	      1.05790201	      0.32761376	     26.60718863	     -0.64194024	     -2.65276034	     -7.42299869	     -0.74527842	     -3.80177500	     -0.11395180	     -7.49363059	      9.45612125	      2.58772900	     -8.29125429	      7.10401090	    -10.89825282	     -0.74802535	      7.20495393	     -1.56307041	     -0.35272826
      0.47933333	     -3.91171944	      4.98407128	     -3.87320900	     -0.72751638	      1.05753527	      0.32809388	     26.46428769	     -0.52490269	     -2.31465137	     -7.70371251	     -1.14349509	     -3.93782531	     -0.07978553	     -7.47734290	      9.44577729	      2.19162981	     -9.07622074	      7.24995961	    -10.22082367	     -0.81720996	      7.28936671	     -1.50131119	     -0.33986255
      0.48350000	     -3.89785029	      4.93178451	     -3.91061318	     -0.72164709	      1.05723497	      0.32840924	     26.31873515	     -0.42123578	     -2.07337950	     -7.98406855	     -1.34153026	     -4.16239171	     -0.03369690	     -7.38526703	      9.35489833	      1.89799436	     -9.95710875	      7.34276270	     -9.68304267	     -0.86948462	      7.27614850	     -1.38371930	     -0.30439200
      0.48766667	     -3.88017691	      4.86057812	     -3.89639861	     -0.71571004	      1.05702239	      0.32855193	     26.15195342	     -0.33932302	     -1.90586601	     -8.26967691	     -1.49321987	     -4.13946239	     -0.01867004	     -7.28323570	      9.24055631	      1.74354610	    -10.87419474	      7.29385066	     -9.56651606	     -0.87707607	      7.27443909	     -1.32018700	     -0.29826720
      0.49183333	     -3.81997031	      4.84001274	     -4.07453720	     -0.70987477	      1.05678321	      0.32899534	     26.00443645	     -0.22827557	     -1.61173764	     -8.63975041	     -1.91653798	     -4.24846060	      0.02578331	     -7.17784816	      9.19723838	      1.28458113	    -11.83953668	      7.21843854	     -8.83332289	     -0.86983939	      7.33425847	     -1.21512022	     -0.27770814
      0.49600000	     -3.75311917	      4.77672541	     -4.04317175	     -0.70402617	      1.05671578	      0.32900154	     25.79531115	     -0.18998361	     -1.49420608	     -8.97602426	     -1.98529276	     -4.23542770	      0.03287200	     -7.05555634	      9.08994262	      1.17292156	    -12.88934746	      7.15781826	     -8.79644349	     -0.86650134	      7.37607516	     -1.12230936	     -0.27356435
      0.50016667	     -3.75216690	      4.66441704	     -4.17701363	     -0.69799052	      1.05654937	      0.32982007	     25.63191838	      0.03483717	     -1.10468548	     -9.26673313	     -2.48691367	     -4.54372107	      0.10157397	     -6.81104158	      8.87249607	      0.44987285	    -14.02815868	      7.06119107	     -7.52336553	     -0.78359348	      7.35530586	     -1.01832212	     -0.20880637
      0.50433333	     -3.65336124	      4.61109851	     -4.18234640	     -0.69224195	      1.05658227	      0.32980612	     25.41689771	      0.05728542	     -1.06117573	     -9.66414666	     -2.55710681	     -4.54435350	      0.10923946	     -6.64070342	      8.77482074	      0.26406530	    -15.21389366	      6.97514598	     -7.48827947	     -0.77385419	      7.38437593	     -0.88572941	     -0.21074192
      0.50850000	     -3.66787723	      4.48107834	     -4.29909708	     -0.68621339	      1.05649202	      0.33061412	     25.27043498	      0.28432955	     -0.77718270	     -9.98602733	     -3.00654504	     -4.84449383	      0.18005702	     -6.30808747	      8.51187500	     -0.46134624	    -16.48325656	      6.69565068	     -6.23129990	     -0.63075186	      7.33747759	     -0.74228777	     -0.13965301
      0.51266667	     -3.63274416	      4.41635267	     -4.40181133	     -0.68046310	      1.05645043	      0.33095512	     25.14423515	      0.38137417	     -0.72276816	    -10.43013183	     -3.20977575	     -5.03899650	      0.23044347	     -5.98080210	      8.36202404	     -0.95393223	    -17.80814074	      6.49552484	     -5.65495097	     -0.51339107	      7.27350817	     -0.52205095	     -0.11024107
      0.51683333	     -3.58631345	      4.28896650	     -4.45203583	     -0.67459313	      1.05653779	      0.33138964	     24.94725562	      0.52703033	     -0.63281984	    -10.79208504	     -3.43193151	     -5.14151440	      0.27806030	     -5.63901528	      8.10994821	     -1.45792133	    -19.20269132	      6.14814229	     -5.01539786	     -0.38660337	      7.25444843	     -0.36176122	     -0.07307785
      0.52100000	     -3.54652762	      4.12951901	     -4.47648169	     -0.66869338	      1.05667260	      0.33197876	     24.71809619	      0.70954702	     -0.45070813	    -11.09289960	     -3.64870165	     -5.34026648	      0.35291818	     -5.26004803	      7.78740024	     -1.96606255	    -20.66149585	      5.83567682	     -4.17622353	     -0.15545940	      7.29081156	     -0.24800267	      0.01267272
      0.52516667	     -3.49539781	      4.02005538	     -4.55153114	     -0.66300528	      1.05678296	      0.33231656	     24.55377549	      0.82361742	     -0.47481311	    -11.51754432	     -3.77940579	     -5.39237006	      0.39277134	     -4.84100943	      7.55162109	     -2.44513793	    -22.17093550	      5.42972919	     -3.72800512	     -0.02272142	      7.17741611	      0.00604255	      0.01578129
      0.52933333	     -3.43567666	      3.85380112	     -4.59252526	     -0.65721217	      1.05698272	      0.33278228	     24.32928993	      0.99304635	     -0.45558052	    -11.87158143	     -3.90007797	     -5.43639906	      0.43480780	     -4.41109929	      7.22120579	     -2.92938817	    -23.72556292	      4.89147736	     -3.12444206	      0.13217185	      7.12749613	      0.21670882	      0.04022024
      0.53350000	     -3.38989220	      3.68518687	     -4.63345515	     -0.65147748	      1.05717793	      0.33327588	     24.12008328	      1.16333269	     -0.44522956	    -12.22406834	     -3.98856979	     -5.48652766	      0.48045885	     -3.92989225	      6.87376917	     -3.40013011	    -25.33548787	      4.36107733	     -2.50602037	      0.31805597	      7.08393426	      0.43219744	      0.07669803
      0.53766667	     -3.34078868	      3.50187568	     -4.66780212	     -0.64576969	      1.05739730	      0.33375787	     23.89940203	      1.34143109	     -0.46547846	    -12.56459664	     -4.04025454	     -5.50838237	      0.52369788	     -3.42137845	      6.50222977	     -3.84673352	    -26.99277075	      3.81791397	     -1.96260376	      0.50501134	      7.02883081	      0.66444416	      0.11003068
      0.54183333	     -3.28540995	      3.29590928	     -4.70051907	     -0.64006714	      1.05765604	      0.33425232	     23.66074647	      1.53982726	     -0.51254316	    -12.89228660	     -4.05669359	     -5.51009123	      0.56815755	     -2.89795697	      6.09617958	     -4.27381824	    -28.67756593	      3.22802802	     -1.44152920	      0.70795291	      6.97633098	      0.91358483	      0.14663652
